HIERARCHY
ROOT hips
{
  OFFSET 0 10.6860622 2.3727825e-15
  CHANNELS 6 Xposition Yposition Zposition Yrotation Xrotation Zrotation
  JOINT leftUpperLeg
  {
    OFFSET 0.6642549969 -0.9402397400000004 0
    CHANNELS 3 Yrotation Xrotation Zrotation
    JOINT leftLowerLeg
    {
      OFFSET 0 -3.997221335632195 0
      CHANNELS 3 Yrotation Xrotation Zrotation
      JOINT leftFoot
      {
        OFFSET -0.13777839790000004 -4.6145792000000005 -0.22186036399999998
        CHANNELS 3 Yrotation Xrotation Zrotation
        JOINT leftToes
        {
          OFFSET -0.03777410834999995 -0.9130806927000008 0.85230013
          CHANNELS 3 Yrotation Xrotation Zrotation
          End Site
          {
            OFFSET -0.03777410834999995 -0.9130806927000008 0.85230013
          }
        }
      }
    }
  }
  JOINT rightUpperLeg
  {
    OFFSET -0.6642778626 -0.9402397400000004 0
    CHANNELS 3 Yrotation Xrotation Zrotation
    JOINT rightLowerLeg
    {
      OFFSET 0 -3.997221452859387 0
      CHANNELS 3 Yrotation Xrotation Zrotation
      JOINT rightFoot
      {
        OFFSET 0.1377926176 -4.6145792000000005 -0.22185782299999995
        CHANNELS 3 Yrotation Xrotation Zrotation
        JOINT rightToes
        {
          OFFSET 0.037780746850000047 -0.9130806927000008 0.85230167
          CHANNELS 3 Yrotation Xrotation Zrotation
          End Site
          {
            OFFSET 0.037780746850000047 -0.9130806927000008 0.85230167
          }
        }
      }
    }
  }
  JOINT spine
  {
    OFFSET 0 0.13988381660000015 0
    CHANNELS 3 Yrotation Xrotation Zrotation
    JOINT chest
    {
      OFFSET 0 0.6191039003973773 0
      CHANNELS 3 Yrotation Xrotation Zrotation
      JOINT upperChest
      {
        OFFSET 0 0.9855186130586943 0
        CHANNELS 3 Yrotation Xrotation Zrotation
        JOINT leftShoulder
        {
          OFFSET 0.1807663869 1.5087829790000005 0
          CHANNELS 3 Yrotation Xrotation Zrotation
          JOINT leftUpperArm
          {
            OFFSET 0.5985063006419806 0 0
            CHANNELS 3 Yrotation Xrotation Zrotation
            JOINT leftLowerArm
            {
              OFFSET 2.2993332369501065 0 0
              CHANNELS 3 Yrotation Xrotation Zrotation
              JOINT leftHand
              {
                OFFSET 2.395047042602395 0 0
                CHANNELS 3 Yrotation Xrotation Zrotation
                JOINT leftIndexProximal
                {
                  OFFSET 0.5766295810000004 0.04556643899499946 0.17265095988184
                  CHANNELS 3 Yrotation Xrotation Zrotation
                  JOINT leftIndexIntermediate
                  {
                    OFFSET 0.2957229000000008 -0.019352197700001517 -0.007932640616999987
                    CHANNELS 3 Yrotation Xrotation Zrotation
                    JOINT leftIndexDistal
                    {
                      OFFSET 0.19008243099999922 -0.012484908149998475 -0.002786250786000012
                      CHANNELS 3 Yrotation Xrotation Zrotation
                      End Site
                      {
                        OFFSET 0.19008243099999922 -0.012484908149998475 -0.002786250786000012
                      }
                    }
                  }
                }
                JOINT leftMiddleProximal
                {
                  OFFSET 0.5834975091000001 0.0524350405149987 0.02204081888183999
                  CHANNELS 3 Yrotation Xrotation Zrotation
                  JOINT leftMiddleIntermediate
                  {
                    OFFSET 0.33880573540000003 -0.019871473270000717 -0.00000971183179999946
                    CHANNELS 3 Yrotation Xrotation Zrotation
                    JOINT leftMiddleDistal
                    {
                      OFFSET 0.20676022730000088 -0.012221336379999448 0.0001471936708000235
                      CHANNELS 3 Yrotation Xrotation Zrotation
                      End Site
                      {
                        OFFSET 0.20676022730000088 -0.012221336379999448 0.0001471936708000235
                      }
                    }
                  }
                }
                JOINT leftLittleProximal
                {
                  OFFSET 0.5344154683999995 -0.012880921405001189 -0.24414037221816004
                  CHANNELS 3 Yrotation Xrotation Zrotation
                  JOINT leftLittleIntermediate
                  {
                    OFFSET 0.21758961730000093 -0.011650919939999227 0.011893592810000034
                    CHANNELS 3 Yrotation Xrotation Zrotation
                    JOINT leftLittleDistal
                    {
                      OFFSET 0.1475273964999999 -0.008152365682999818 0.006001092492999946
                      CHANNELS 3 Yrotation Xrotation Zrotation
                      End Site
                      {
                        OFFSET 0.1475273964999999 -0.008152365682999818 0.006001092492999946
                      }
                    }
                  }
                }
                JOINT leftRingProximal
                {
                  OFFSET 0.5799399463000003 0.026911854694997794 -0.12150566991816003
                  CHANNELS 3 Yrotation Xrotation Zrotation
                  JOINT leftRingIntermediate
                  {
                    OFFSET 0.26167887460000006 -0.013480186499999602 0.010996293000000053
                    CHANNELS 3 Yrotation Xrotation Zrotation
                    JOINT leftRingDistal
                    {
                      OFFSET 0.17667108799999987 -0.008990287899999228 0.0055541023999999065
                      CHANNELS 3 Yrotation Xrotation Zrotation
                      End Site
                      {
                        OFFSET 0.17667108799999987 -0.008990287899999228 0.0055541023999999065
                      }
                    }
                  }
                }
                JOINT leftThumbProximal
                {
                  OFFSET 0.11018806699999972 -0.09448718900500053 0.17047963138184
                  CHANNELS 3 Yrotation Xrotation Zrotation
                  JOINT leftThumbIntermediate
                  {
                    OFFSET 0.31062601459999983 -0.08126270900000132 0.15443142000000007
                    CHANNELS 3 Yrotation Xrotation Zrotation
                    JOINT leftThumbDistal
                    {
                      OFFSET 0.21627175790000086 -0.08833193599999878 0.018771167799999988
                      CHANNELS 3 Yrotation Xrotation Zrotation
                      End Site
                      {
                        OFFSET 0.21627175790000086 -0.08833193599999878 0.018771167799999988
                      }
                    }
                  }
                }
              }
            }
          }
        }
        JOINT neck
        {
          OFFSET 0 1.5463305265074576 0
          CHANNELS 3 Yrotation Xrotation Zrotation
          JOINT head
          {
            OFFSET 0 0.8456443600000344 0
            CHANNELS 3 Yrotation Xrotation Zrotation
            JOINT leftEye
            {
              OFFSET 0.30408573140000006 0.5104519199999995 0.1276382305
              CHANNELS 3 Yrotation Xrotation Zrotation
              End Site
              {
                OFFSET 0.30408573140000006 0.5104519199999995 0.1276382305
              }
            }
            JOINT rightEye
            {
              OFFSET -0.30409491089999996 0.5104519199999995 0.1276379445
              CHANNELS 3 Yrotation Xrotation Zrotation
              End Site
              {
                OFFSET -0.30409491089999996 0.5104519199999995 0.1276379445
              }
            }
            JOINT jaw
            {
              OFFSET -3.155239131000001e-7 -0.11984121820000082 0.60178107
              CHANNELS 3 Yrotation Xrotation Zrotation
              End Site
              {
                OFFSET -3.155239131000001e-7 -0.11984121820000082 0.60178107
              }
            }
          }
        }
        JOINT rightShoulder
        {
          OFFSET -0.1807303465 1.5087829790000005 0
          CHANNELS 3 Yrotation Xrotation Zrotation
          JOINT rightUpperArm
          {
            OFFSET -0.5985063796536958 0 0
            CHANNELS 3 Yrotation Xrotation Zrotation
            JOINT rightLowerArm
            {
              OFFSET -2.2993322059002854 0 0
              CHANNELS 3 Yrotation Xrotation Zrotation
              JOINT rightHand
              {
                OFFSET -2.395045314457259 0 0
                CHANNELS 3 Yrotation Xrotation Zrotation
                JOINT rightIndexProximal
                {
                  OFFSET -0.5764487688300002 0.0441371204405987 0.17361932004999997
                  CHANNELS 3 Yrotation Xrotation Zrotation
                  JOINT rightIndexIntermediate
                  {
                    OFFSET -0.29573011380000047 -0.01934826376999843 -0.007698921482999974
                    CHANNELS 3 Yrotation Xrotation Zrotation
                    JOINT rightIndexDistal
                    {
                      OFFSET -0.19008373999999884 -0.012503266380000655 -0.0026365778999999897
                      CHANNELS 3 Yrotation Xrotation Zrotation
                      End Site
                      {
                        OFFSET -0.19008373999999884 -0.012503266380000655 -0.0026365778999999897
                      }
                    }
                  }
                }
                JOINT rightMiddleProximal
                {
                  OFFSET -0.5834852037300005 0.05211639405060153 0.02307162440000001
                  CHANNELS 3 Yrotation Xrotation Zrotation
                  JOINT rightMiddleIntermediate
                  {
                    OFFSET -0.33880114510000003 -0.019952774050000954 0.0002455003561999819
                    CHANNELS 3 Yrotation Xrotation Zrotation
                    JOINT rightMiddleDistal
                    {
                      OFFSET -0.20675694929999955 -0.012273788999999091 0.00030209124000002766
                      CHANNELS 3 Yrotation Xrotation Zrotation
                      End Site
                      {
                        OFFSET -0.20675694929999955 -0.012273788999999091 0.00030209124000002766
                      }
                    }
                  }
                }
                JOINT rightLittleProximal
                {
                  OFFSET -0.5346811737299992 -0.011214256288399227 -0.24363941305000003
                  CHANNELS 3 Yrotation Xrotation Zrotation
                  JOINT rightLittleIntermediate
                  {
                    OFFSET -0.21757715980000092 -0.011771559690000988 0.01201554387
                    CHANNELS 3 Yrotation Xrotation Zrotation
                    JOINT rightLittleDistal
                    {
                      OFFSET -0.1475201849000004 -0.00822055339600003 0.006082065407000015
                      CHANNELS 3 Yrotation Xrotation Zrotation
                      End Site
                      {
                        OFFSET -0.1475201849000004 -0.00822055339600003 0.006082065407000015
                      }
                    }
                  }
                }
                JOINT rightRingProximal
                {
                  OFFSET -0.5800810755299999 0.027657985680600072 -0.12066365025000003
                  CHANNELS 3 Yrotation Xrotation Zrotation
                  JOINT rightRingIntermediate
                  {
                    OFFSET -0.26166445029999974 -0.013623118409999302 0.011164098990000045
                    CHANNELS 3 Yrotation Xrotation Zrotation
                    JOINT rightRingDistal
                    {
                      OFFSET -0.17666387530000027 -0.009072900100000503 0.005668185599999959
                      CHANNELS 3 Yrotation Xrotation Zrotation
                      End Site
                      {
                        OFFSET -0.17666387530000027 -0.009072900100000503 0.005668185599999959
                      }
                    }
                  }
                }
                JOINT rightThumbProximal
                {
                  OFFSET -0.10997596379000074 -0.09577489355940072 0.16989765924999997
                  CHANNELS 3 Yrotation Xrotation Zrotation
                  JOINT rightThumbIntermediate
                  {
                    OFFSET -0.31036620999999986 -0.08229339117999834 0.15440884469999996
                    CHANNELS 3 Yrotation Xrotation Zrotation
                    JOINT rightThumbDistal
                    {
                      OFFSET -0.21631306399999906 -0.08825326400000111 0.018656797720000014
                      CHANNELS 3 Yrotation Xrotation Zrotation
                      End Site
                      {
                        OFFSET -0.21631306399999906 -0.08825326400000111 0.018656797720000014
                      }
                    }
                  }
                }
              }
            }
          }
        }
      }
    }
  }
}
MOTION
Frames: 7
Frame Time: 0.03333333333333333
0 11.682712981546562 0 0 0 0 0 0 -5.826343164929014 -0.3712483961610101 -3.6333298826370974 5.838118207697276 0 0 0 0 0 0 0 0 5.826343164929014 0.3712483961610101 -3.6333298826370974 -5.838118207697276 0 0 0 0 0 0 0 -4.610651315171937 0 0 3.0831277533083026 0 0 0 0 0 1.5275236235667615 0 0 0 0 0 0 0 0 0 0 0 0 0 0 0 0 0 0 0 0 0 0 0 0 0 0 0 0 0 0 0 0 0 0 0 0 0 0 0 0 0 0 0 0 0 0 0 0 0 0 0 0 0 0 0 0 1.5275236235667615 0 0 0 0 0 0 0 0 0 0 0 0 0 0 1.5275236235667615 0 0 0 0 0 0 0 0 0 0 0 0 0 0 0 0 0 0 0 0 0 0 0 0 0 0 0 0 0 0 0 0 0 0 0 0 0 0 0 0 0 0 0 0 0 0 0 0 0 0 0 0 0 0 0
0.3281151879093762 -5.795632109864492 -1.453540880657273 0.0000011340092150139751 0.0000010495550560017636 84.99564388596775 13.073928141436832 -29.595285378176563 -10.17654306407478 -5.033890555196065 72.1035463808158 -2.8056250194901398 -0.5345321423807146 42.07862313308971 -1.073035280450245 0 0 0 4.697588539260183 -4.832187351530176 8.75146488211031 -1.2167342283782785 11.352739223188822 -5.456149131303396 0.5515437508372031 19.70224369918206 0.32471421891511654 0 0 0 0.8204789279369681 -12.893153627313353 -10.162775229099585 -0.5109134101629014 27.650219777568275 -0.24901638962625294 0 0 0 1.9987855286719691 1.5216700002255648 -20.94683649775433 -37.98492241678097 -25.128197448340728 -49.067222732150334 -106.00355750164222 16.9977618307802 -0.0008940557860317941 -30.996219846331076 2.122954849446271 6.855448479778594 0 0 0 0 0 0 0 0 0 0 0 0 0 0 0 0 0 0 0 0 0 0 0 0 0 0 0 0 0 0 0 0 0 0 0 0 0 0 0 0 0 0 0 0 0 2.8472172630911357 27.857945509015074 34.36139054821606 31.00369569978961 -1.13399226363348 -0.9296915539248968 0 0 0 0 0 0 0 0 0 11.924111207539621 1.315649429027005 23.31496081562653 -3.7104717606725783 -1.4986949751666112 68.04565648904786 4.998605312809049 -5.0018350112960555 -0.0029833609058810876 11.824596768325712 -4.251866712160582 5.879634621491676 0 0 0 0 0 0 0 0 0 0 0 0 0 0 0 0 0 0 0 0 0 0 0 0 0 0 0 0 0 0 0 0 0 0 0 0 0 0 0 0 0 0 0 0 0
0.3281151879093762 -5.795632109864492 -1.453540880657273 0.0000011340092150139751 0.0000010495550560017636 84.99564388596775 13.07392998628953 -29.595285378176563 -10.176544030501136 -5.033890555196065 72.1035463808158 -2.8056250194901398 -0.5345321423807146 42.07862313308971 -1.073035280450245 0 0 0 4.697589673883198 -4.832188208349219 8.75146488211031 -1.2167342283782785 11.352739223188822 -5.456149131303396 0.5515437508372031 19.702245512909798 0.3247142472541582 0 0 0 0.8204789826723446 -12.893154503169198 -10.162776091213649 -0.5109134101629014 27.650221705263895 -0.24901640468623257 0 0 0 1.9987855286719691 1.5216700002255648 -20.946838093016726 -37.98492241678097 -25.128197448340728 -49.067222732150334 -106.00355750164222 16.9977618307802 -0.0008930101121035138 -30.996219846331076 2.1229554902163095 6.855449328030337 0 0 0 0 0 0 0 0 0 0 0 0 0 0 0 0 0 0 0 0 0 0 0 0 0 0 0 0 0 0 0 0 0 0 0 0 0 0 0 0 0 0 0 0 0 2.847219142833734 27.857945509015074 34.36139591707616 31.003698627556908 -1.13399226363348 -0.9296916606534564 0 0 0 0 0 0 0 0 0 11.924111207539621 1.315649429027005 23.31496081562653 -3.7104717606725783 -1.4986949751666112 68.04565648904786 4.998605312809049 -5.0018350112960555 -0.0029833609058810876 11.824597606288144 -4.251867140225539 5.879635473117743 0 0 0 0 0 0 0 0 0 0 0 0 0 0 0 0 0 0 0 0 0 0 0 0 0 0 0 0 0 0 0 0 0 0 0 0 0 0 0 0 0 0 0 0 0
0.3281151879093762 -5.795632109864492 -1.453540880657273 0.0000011340092150139751 0.0000010495550560017636 84.99564388596775 13.073927185014822 -29.595285378176563 -10.17654306407478 -5.033890555196065 72.1035463808158 -2.805624325741032 -0.5345321423807146 42.07862313308971 -1.073035280450245 0 0 0 4.697588539260183 -4.832187351530176 8.75146488211031 -1.2167339018973835 11.352734869128557 -5.456149131303396 0.5515437508372031 19.70224369918206 0.32471421891511654 0 0 0 0.8204789279369681 -12.893153627313353 -10.162775229099585 -0.5109134101629014 27.650219777568275 -0.24901638962625294 0 0 0 1.9987855286719691 1.5216700002255648 -20.946834902491897 -37.984914800636645 -25.128188018128608 -49.06722235378882 -106.00355750164222 16.997758259686623 -0.0008940557860317941 -30.996219846331076 2.122954849446271 6.855448479778594 0 0 0 0 0 0 0 0 0 0 0 0 0 0 0 0 0 0 0 0 0 0 0 0 0 0 0 0 0 0 0 0 0 0 0 0 0 0 0 0 0 0 0 0 0 2.8472172630911357 27.857945509015074 34.36139054821606 31.00369569978961 -1.1339914096925867 -0.9296910202820978 0 0 0 0 0 0 0 0 0 11.924111207539621 1.315649429027005 23.31496081562653 -3.7104709083970793 -1.4986946548919344 68.04565648904786 4.998605312809049 -5.0018350112960555 -0.0029833609058810876 11.824596768325712 -4.251866712160582 5.879634621491676 0 0 0 0 0 0 0 0 0 0 0 0 0 0 0 0 0 0 0 0 0 0 0 0 0 0 0 0 0 0 0 0 0 0 0 0 0 0 0 0 0 0 0 0 0
0.3281151879093762 -5.795632109864492 -1.453540880657273 0.0000011340092150139751 0.0000010495550560017636 84.99564388596775 13.073928141436832 -29.595285378176563 -10.17654306407478 -5.033890555196065 72.1035463808158 -2.8056250194901398 -0.5345321423807146 42.07862313308971 -1.073035280450245 0 0 0 4.697588539260183 -4.832187351530176 8.75146488211031 -1.2167342283782785 11.352739223188822 -5.456149131303396 0.5515437508372031 19.70224369918206 0.32471421891511654 0 0 0 0.8204789279369681 -12.893153627313353 -10.162775229099585 -0.5109134101629014 27.650219777568275 -0.24901638962625294 0 0 0 1.9987855286719691 1.5216700002255648 -20.94683649775433 -37.98492241678097 -25.128197448340728 -49.067222732150334 -106.00355750164222 16.9977618307802 -0.0008940557860317941 -30.996219846331076 2.122954849446271 6.855448479778594 0 0 0 0 0 0 0 0 0 0 0 0 0 0 0 0 0 0 0 0 0 0 0 0 0 0 0 0 0 0 0 0 0 0 0 0 0 0 0 0 0 0 0 0 0 2.8472172630911357 27.857945509015074 34.36139054821606 31.00369569978961 -1.13399226363348 -0.9296915539248968 0 0 0 0 0 0 0 0 0 11.924111207539621 1.315649429027005 23.31496081562653 -3.7104717606725783 -1.4986949751666112 68.04565648904786 4.998605312809049 -5.0018350112960555 -0.0029833609058810876 11.824596768325712 -4.251866712160582 5.879634621491676 0 0 0 0 0 0 0 0 0 0 0 0 0 0 0 0 0 0 0 0 0 0 0 0 0 0 0 0 0 0 0 0 0 0 0 0 0 0 0 0 0 0 0 0 0
0.3281151879093762 -5.795632109864492 -1.453540880657273 0.0000011340092150139751 0.0000010495550560017636 84.99564388596775 13.073930942711586 -29.595285378176563 -10.176544030501136 -5.033890555196065 72.1035463808158 -2.8056250194901398 -0.5345321423807146 42.07862313308971 -1.073035280450245 0 0 0 4.697588539260183 -4.832187351530176 8.75146488211031 -1.2167342283782785 11.352739223188822 -5.456149131303396 0.5515437508372031 19.70224369918206 0.32471421891511654 0 0 0 0.8204789826723446 -12.893153627313353 -10.162776091213649 -0.5109134101629014 27.650221705263895 -0.24901640468623257 0 0 0 1.9987855286719691 1.5216700002255648 -20.946838093016726 -37.984924738326214 -25.12820122042578 -49.067225581880614 -106.00355750164222 16.9977618307802 -0.0008930101121035138 -30.996219846331076 2.122954849446271 6.855448479778594 0 0 0 0 0 0 0 0 0 0 0 0 0 0 0 0 0 0 0 0 0 0 0 0 0 0 0 0 0 0 0 0 0 0 0 0 0 0 0 0 0 0 0 0 0 2.847218178337419 27.857945509015074 34.36139591707616 31.00369569978961 -1.13399226363348 -0.9296915539248968 0 0 0 0 0 0 0 0 0 11.924112043110913 1.315649429027005 23.31496238415426 -3.7104717606725783 -1.4986949751666112 68.04565648904786 4.998606166586904 -5.00183586833338 -0.0029833609058810876 11.824596768325712 -4.251866712160582 5.879634621491676 0 0 0 0 0 0 0 0 0 0 0 0 0 0 0 0 0 0 0 0 0 0 0 0 0 0 0 0 0 0 0 0 0 0 0 0 0 0 0 0 0 0 0 0 0
0.3281151879093762 -5.795632109864492 -1.453540880657273 0.0000011340214283439518 0.0000010495561755570114 84.99559000535932 13.073928141436832 -29.595285378176563 -10.17654306407478 -5.033890555196065 72.1035463808158 -2.8056250194901398 -0.5345321423807146 42.07862313308971 -1.073035280450245 0 0 0 4.697588539260183 -4.832187351530176 8.75146488211031 -1.2167342283782785 11.352739223188822 -5.456149131303396 0.5515437159189346 19.702241885454335 0.32471419835723186 0 0 0 0.8204789279369681 -12.893153627313353 -10.162775229099585 -0.5109133757843677 27.650217849872682 -0.2490163745662733 0 0 0 1.9987846751167653 1.5216700002255648 -20.94683649775433 -37.98492241678097 -25.128197448340728 -49.067222732150334 -106.00354278632507 16.997758259686623 -0.0008940557860317941 -30.996219846331076 2.122954849446271 6.855448479778594 0 0 0 0 0 0 0 0 0 0 0 0 0 0 0 0 0 0 0 0 0 0 0 0 0 0 0 0 0 0 0 0 0 0 0 0 0 0 0 0 0 0 0 0 0 2.8472182275873874 27.857945509015074 34.36138677369617 31.00369569978961 -1.13399226363348 -0.9296915539248968 0 0 0 0 0 0 0 0 0 11.924111207539621 1.315649429027005 23.31496081562653 -3.7104709083970793 -1.4986946548919344 68.04565648904786 4.998605312809049 -5.0018350112960555 -0.0029833609058810876 11.824595092400834 -4.251866712160582 5.879634621491676 0 0 0 0 0 0 0 0 0 0 0 0 0 0 0 0 0 0 0 0 0 0 0 0 0 0 0 0 0 0 0 0 0 0 0 0 0 0 0 0 0 0 0 0 0
